HIERARCHY
ROOT hip
{
  OFFSET 0.00112043 5.09927 -9.65472
  CHANNELS 6 Xposition Yposition Zposition Zrotation Xrotation Yrotation
  JOINT abdomen
  {
    OFFSET 0 -1.186 -1.5018
    CHANNELS 3 Zrotation Xrotation Yrotation
    JOINT abdomen2
    {
      OFFSET 0 9.964 0.2134
      CHANNELS 3 Zrotation Xrotation Yrotation
      JOINT chest
      {
        OFFSET 0 13.134 -3.2573
        CHANNELS 3 Zrotation Xrotation Yrotation
        JOINT neck
        {
          OFFSET 0 20.686 -1.6905
          CHANNELS 3 Zrotation Xrotation Yrotation
          JOINT head
          {
            OFFSET 0 7.238 -0.1237
            CHANNELS 3 Zrotation Xrotation Yrotation
            End Site
            {
              OFFSET 0 0 0
            }
          }
        }
        JOINT lCollar
        {
          OFFSET 1.7069 20.075 5.0056
          CHANNELS 3 Zrotation Xrotation Yrotation
          JOINT lShldr
          {
            OFFSET 13.6458 -0.047 -4.849
            CHANNELS 3 Zrotation Xrotation Yrotation
            JOINT lForeArm
            {
              OFFSET 28.3255 -0.9759 2.2888
              CHANNELS 3 Zrotation Xrotation Yrotation
              JOINT lHand
              {
                OFFSET 22.1583 -0.53 10.8316
                CHANNELS 3 Zrotation Xrotation Yrotation
                JOINT lThumb1
                {
                  OFFSET 0.786 0.112 2.5817
                  CHANNELS 3 Zrotation Xrotation Yrotation
                  JOINT lThumb2
                  {
                    OFFSET 0.3601 -0.878 4.2331
                    CHANNELS 3 Zrotation Xrotation Yrotation
                    JOINT lThumb2_End
                    {
                      OFFSET 1.8127 -1.216 2.2227
                      CHANNELS 3 Zrotation Xrotation Yrotation
                      End Site
                      {
                        OFFSET 0.0181 -0.0122 0.0222
                      }
                    }
                  }
                }
                JOINT lCarpal1
                {
                  OFFSET 0.9571 1.114 1.7695
                  CHANNELS 3 Zrotation Xrotation Yrotation
                  JOINT lIndex1
                  {
                    OFFSET 4.1246 0.487 4.1451
                    CHANNELS 3 Zrotation Xrotation Yrotation
                    JOINT lIndex2
                    {
                      OFFSET 3.4052 -1.454 2.7682
                      CHANNELS 3 Zrotation Xrotation Yrotation
                      JOINT lIndex2_End
                      {
                        OFFSET 1.4531 -1.795 1.2713
                        CHANNELS 3 Zrotation Xrotation Yrotation
                        End Site
                        {
                          OFFSET 0.0145 -0.0179 0.0127
                        }
                      }
                    }
                  }
                  JOINT lMid1
                  {
                    OFFSET 5.6954 0.21 2.1184
                    CHANNELS 3 Zrotation Xrotation Yrotation
                    JOINT lMid2
                    {
                      OFFSET 3.9766 -1.54 2.3863
                      CHANNELS 3 Zrotation Xrotation Yrotation
                      JOINT lMid2_End
                      {
                        OFFSET 1.4042 -1.926 1.125
                        CHANNELS 3 Zrotation Xrotation Yrotation
                        End Site
                        {
                          OFFSET 0.014 -0.0193 0.0113
                        }
                      }
                    }
                  }
                }
                JOINT lCarpal2
                {
                  OFFSET 2.0956 0.66 -0.3894
                  CHANNELS 3 Zrotation Xrotation Yrotation
                  JOINT lRing1
                  {
                    OFFSET 5.0395 -0.09 2.4971
                    CHANNELS 3 Zrotation Xrotation Yrotation
                    JOINT lRing2
                    {
                      OFFSET 3.7921 -1.552 1.4806
                      CHANNELS 3 Zrotation Xrotation Yrotation
                      JOINT lRing2_End
                      {
                        OFFSET 1.4655 -1.808 0.9609
                        CHANNELS 3 Zrotation Xrotation Yrotation
                        End Site
                        {
                          OFFSET 0.0147 -0.0181 0.0096
                        }
                      }
                    }
                  }
                  JOINT lPinky1
                  {
                    OFFSET 4.9141 -1.269 0.3591
                    CHANNELS 3 Zrotation Xrotation Yrotation
                    JOINT lPinky2
                    {
                      OFFSET 3.1477 -1.685 0.8462
                      CHANNELS 3 Zrotation Xrotation Yrotation
                      JOINT lPinky2_End
                      {
                        OFFSET 0.8055 -1.585 0.7955
                        CHANNELS 3 Zrotation Xrotation Yrotation
                        End Site
                        {
                          OFFSET 0.0081 -0.0158 0.008
                        }
                      }
                    }
                  }
                }
              }
            }
          }
        }
        JOINT rCollar
        {
          OFFSET -1.7069 20.075 5.0056
          CHANNELS 3 Zrotation Xrotation Yrotation
          JOINT rShldr
          {
            OFFSET -13.6458 -0.047 -4.849
            CHANNELS 3 Zrotation Xrotation Yrotation
            JOINT rForeArm
            {
              OFFSET -28.3255 -0.9759 2.2888
              CHANNELS 3 Zrotation Xrotation Yrotation
              JOINT rHand
              {
                OFFSET -22.1583 -0.53 10.8316
                CHANNELS 3 Zrotation Xrotation Yrotation
                JOINT rThumb1
                {
                  OFFSET -0.786 0.112 2.5817
                  CHANNELS 3 Zrotation Xrotation Yrotation
                  JOINT rThumb2
                  {
                    OFFSET -0.3601 -0.878 4.2331
                    CHANNELS 3 Zrotation Xrotation Yrotation
                    JOINT rThumb2_End
                    {
                      OFFSET -1.8127 -1.216 2.2227
                      CHANNELS 3 Zrotation Xrotation Yrotation
                      End Site
                      {
                        OFFSET -0.0181 -0.0122 0.0222
                      }
                    }
                  }
                }
                JOINT rCarpal1
                {
                  OFFSET -0.9571 1.114 1.7695
                  CHANNELS 3 Zrotation Xrotation Yrotation
                  JOINT rIndex1
                  {
                    OFFSET -4.1246 0.487 4.1451
                    CHANNELS 3 Zrotation Xrotation Yrotation
                    JOINT rIndex2
                    {
                      OFFSET -3.4052 -1.454 2.7682
                      CHANNELS 3 Zrotation Xrotation Yrotation
                      JOINT rIndex2_End
                      {
                        OFFSET -1.4531 -1.795 1.2713
                        CHANNELS 3 Zrotation Xrotation Yrotation
                        End Site
                        {
                          OFFSET -0.0145 -0.018 0.0127
                        }
                      }
                    }
                  }
                  JOINT rMid1
                  {
                    OFFSET -5.6954 0.21 2.1184
                    CHANNELS 3 Zrotation Xrotation Yrotation
                    JOINT rMid2
                    {
                      OFFSET -3.9766 -1.54 2.3863
                      CHANNELS 3 Zrotation Xrotation Yrotation
                      JOINT rMid2_End
                      {
                        OFFSET -1.4042 -1.926 1.125
                        CHANNELS 3 Zrotation Xrotation Yrotation
                        End Site
                        {
                          OFFSET -0.014 -0.0193 0.0113
                        }
                      }
                    }
                  }
                }
                JOINT rCarpal2
                {
                  OFFSET -2.0956 0.66 -0.3894
                  CHANNELS 3 Zrotation Xrotation Yrotation
                  JOINT rRing1
                  {
                    OFFSET -5.0395 -0.09 2.4971
                    CHANNELS 3 Zrotation Xrotation Yrotation
                    JOINT rRing2
                    {
                      OFFSET -3.7921 -1.552 1.4806
                      CHANNELS 3 Zrotation Xrotation Yrotation
                      JOINT rRing2_End
                      {
                        OFFSET -1.4655 -1.808 0.9609
                        CHANNELS 3 Zrotation Xrotation Yrotation
                        End Site
                        {
                          OFFSET -0.0147 -0.0181 0.0096
                        }
                      }
                    }
                  }
                  JOINT rPinky1
                  {
                    OFFSET -4.9141 -1.269 0.3592
                    CHANNELS 3 Zrotation Xrotation Yrotation
                    JOINT rPinky2
                    {
                      OFFSET -3.1477 -1.685 0.8462
                      CHANNELS 3 Zrotation Xrotation Yrotation
                      JOINT rPinky2_End
                      {
                        OFFSET -0.8055 -1.585 0.7955
                        CHANNELS 3 Zrotation Xrotation Yrotation
                        End Site
                        {
                          OFFSET -0.0081 -0.0158 0.008
                        }
                      }
                    }
                  }
                }
              }
            }
          }
        }
      }
    }
  }
  JOINT lThigh
  {
    OFFSET 8.367 -8.2066 0.5982
    CHANNELS 3 Zrotation Xrotation Yrotation
    JOINT lShin
    {
      OFFSET 2.1923 -43.463 -0.4932
      CHANNELS 3 Zrotation Xrotation Yrotation
      JOINT lFoot
      {
        OFFSET 0.7333 -45.8593 -2.6451
        CHANNELS 3 Zrotation Xrotation Yrotation
        End Site
        {
          OFFSET 2.6618 -4.2699 12.3931
        }
      }
    }
  }
  JOINT rThigh
  {
    OFFSET -8.367 -8.2066 0.5982
    CHANNELS 3 Zrotation Xrotation Yrotation
    JOINT rShin
    {
      OFFSET -2.1923 -43.463 -0.4931
      CHANNELS 3 Zrotation Xrotation Yrotation
      JOINT rFoot
      {
        OFFSET -0.7333 -45.8593 -2.6451
        CHANNELS 3 Zrotation Xrotation Yrotation
        End Site
        {
          OFFSET -2.6618 -4.2699 12.3931
        }
      }
    }
  }
}
MOTION
Frames:	4
Frame Time:	0.0333333
0.000347026 11.5286 2.50247 0 0 -0 0 12.5383 -0 0 25.0766 -0 0 25.0766 -0 -0.0503777 1.38361 -8.99944 -1.02365 -34.6479 -8.1633 -8.50669e-008 -8.74088e-006 -2.0022 0.711316 -3.59342 -78.5574 0.171965 0.0608234 -11.218 47.0125 -15.76 7.77633 1.42703e-006 8.76271e-007 5.88477e-007 1.12865e-006 2.39301e-006 -5.74683e-006 1.56508e-006 7.18045e-007 5.50395e-007 5.29669e-031 9.54166e-015 -3.18055e-015 1.42703e-006 8.76271e-007 5.88477e-007 1.12865e-006 2.39301e-006 -5.74683e-006 1.56508e-006 7.18045e-007 5.50395e-007 1.42703e-006 8.76271e-007 5.88477e-007 1.12865e-006 2.39301e-006 -5.74683e-006 1.56508e-006 7.18045e-007 5.50395e-007 5.29669e-031 9.54166e-015 -3.18055e-015 1.42703e-006 8.76271e-007 5.88477e-007 1.12865e-006 2.39301e-006 -5.74683e-006 1.56508e-006 7.18045e-007 5.50395e-007 1.42703e-006 8.76271e-007 5.88477e-007 1.12865e-006 2.39301e-006 -5.74683e-006 1.56508e-006 7.18045e-007 5.50395e-007 1.36414e-006 -8.51122e-006 11.9978 -7.74436 -0.928852 57.3703 -1.86776 -0.660735 15.1063 -52.6841 -17.0847 -9.97089 1.34004e-006 2.38703e-007 -1.05492e-007 -7.95139e-016 -1.09332e-015 4.77083e-015 1.40131e-007 1.59846e-007 -1.90878e-008 7.95139e-016 -2.98177e-016 1.59028e-015 1.34004e-006 2.38703e-007 -1.05492e-007 -7.95139e-016 -9.93923e-017 3.18055e-015 1.40131e-007 1.59846e-007 -1.90878e-008 1.34004e-006 2.38703e-007 -1.05492e-007 -7.95139e-016 -9.93923e-017 3.18055e-015 1.40131e-007 1.59846e-007 -1.90878e-008 7.95139e-016 -2.98177e-016 1.59028e-015 1.34004e-006 2.38703e-007 -1.05492e-007 -7.95139e-016 -9.93923e-017 3.18055e-015 1.40131e-007 1.59846e-007 -1.90878e-008 1.34004e-006 2.38703e-007 -1.05492e-007 -7.95139e-016 -9.93923e-017 3.18055e-015 1.40131e-007 1.59846e-007 -1.90878e-008 72.8708 -75.7483 87.7368 178.818 31.5224 -165.255 -9.7759 78.4351 17.5306 -76.399 -75.9855 -91.3758 -178.818 31.5319 165.277 9.69495 78.3698 -17.4395 
0.000347026 11.5286 2.50247 0 0 -0 0 12.5197 -0 0 25.0394 -0 0 25.0394 -0 -0.0506498 1.37761 -8.95443 -1.08063 -34.4735 -8.74265 -2.08711e-007 -1.00198e-005 -2.0022 1.74751 -3.59344 -78.5574 0.171993 0.0637843 -11.1254 47.0125 -15.76 7.77633 1.25878e-006 1.11454e-006 -2.22566e-008 8.35908e-007 -9.44088e-007 -2.23087e-007 1.81606e-006 4.85153e-007 -1.70981e-007 0 1.98785e-015 -0 1.25878e-006 1.11454e-006 -2.22566e-008 8.35908e-007 -9.44088e-007 -2.23087e-007 1.81606e-006 4.85153e-007 -1.70981e-007 1.25878e-006 1.11454e-006 -2.22566e-008 8.35908e-007 -9.44088e-007 -2.23087e-007 1.81606e-006 4.85153e-007 -1.70981e-007 0 1.98785e-015 -0 1.25878e-006 1.11454e-006 -2.22566e-008 8.35908e-007 -9.44088e-007 -2.23087e-007 1.81606e-006 4.85153e-007 -1.70981e-007 1.25878e-006 1.11454e-006 -2.22566e-008 8.35908e-007 -9.44088e-007 -2.23087e-007 1.81606e-006 4.85153e-007 -1.70981e-007 -5.16189e-007 -1.14194e-005 11.9978 -9.24402 -0.949239 57.355 -1.86778 -0.660744 15.1063 -52.2158 -16.9898 -9.82235 7.10284e-008 7.91386e-008 -9.00803e-009 7.95139e-016 0 1.59028e-015 7.10284e-008 7.91386e-008 -9.00802e-009 3.03456e-032 2.18663e-015 -7.95139e-016 7.10285e-008 7.91386e-008 -9.00803e-009 1.59028e-015 3.27995e-015 7.95139e-016 7.10284e-008 7.91386e-008 -9.00802e-009 7.10285e-008 7.91386e-008 -9.00803e-009 1.59028e-015 3.27995e-015 7.95139e-016 7.10284e-008 7.91386e-008 -9.00802e-009 3.03456e-032 2.18663e-015 -7.95139e-016 7.10285e-008 7.91386e-008 -9.00803e-009 1.59028e-015 3.27995e-015 7.95139e-016 7.10284e-008 7.91386e-008 -9.00802e-009 7.10285e-008 7.91386e-008 -9.00803e-009 1.59028e-015 3.27995e-015 7.95139e-016 7.10284e-008 7.91386e-008 -9.00802e-009 72.8708 -75.7483 87.7368 178.818 31.5224 -165.255 -9.7759 78.4351 17.5306 -76.399 -75.9855 -91.3758 -178.818 31.5319 165.277 9.69495 78.3698 -17.4395 
0.000347026 11.5286 2.50247 0 0 -0 0 12.501 -0 0 25.0021 -0 0 25.0021 -0 -0.0509323 1.36977 -8.9094 -1.13544 -34.2984 -9.32142 -2.35901e-007 3.5911e-007 -2.0022 2.7841 -3.59342 -78.5574 0.172021 0.066751 -11.0328 47.0125 -15.76 7.77633 8.43412e-007 -9.38742e-007 -2.1764e-007 -1.59028e-015 2.5842e-015 1.59028e-015 1.40569e-006 -1.56457e-006 -3.62733e-007 -3.18055e-015 7.95139e-016 -0 8.43412e-007 -9.38742e-007 -2.1764e-007 1.59028e-015 6.55989e-015 -1.59028e-015 1.40569e-006 -1.56457e-006 -3.62733e-007 8.43412e-007 -9.38742e-007 -2.1764e-007 1.59028e-015 6.55989e-015 -1.59028e-015 1.40569e-006 -1.56457e-006 -3.62733e-007 -3.18055e-015 7.95139e-016 -0 8.43412e-007 -9.38742e-007 -2.1764e-007 1.59028e-015 6.55989e-015 -1.59028e-015 1.40569e-006 -1.56457e-006 -3.62733e-007 8.43412e-007 -9.38742e-007 -2.1764e-007 1.59028e-015 6.55989e-015 -1.59028e-015 1.40569e-006 -1.56457e-006 -3.62733e-007 1.21468e-006 1.02969e-005 11.9978 -10.7444 -0.969237 57.3392 -1.86777 -0.660739 15.1063 -51.748 -16.8938 -9.67469 -6.29766e-008 -6.85511e-008 7.40279e-009 -5.39799e-008 -5.87581e-008 6.34524e-009 -7.19732e-008 -7.83441e-008 8.46033e-009 -7.95139e-016 3.97569e-016 -0 -6.29766e-008 -6.85511e-008 7.40279e-009 -5.39799e-008 -5.87581e-008 6.34524e-009 -7.19732e-008 -7.83441e-008 8.46033e-009 -6.29766e-008 -6.85511e-008 7.40279e-009 -5.39799e-008 -5.87581e-008 6.34524e-009 -7.19732e-008 -7.83441e-008 8.46033e-009 -7.95139e-016 3.97569e-016 -0 -6.29766e-008 -6.85511e-008 7.40279e-009 -5.39799e-008 -5.87581e-008 6.34524e-009 -7.19732e-008 -7.83441e-008 8.46033e-009 -6.29766e-008 -6.85511e-008 7.40279e-009 -5.39799e-008 -5.87581e-008 6.34524e-009 -7.19732e-008 -7.83441e-008 8.46033e-009 72.8708 -75.7483 87.7368 178.818 31.5224 -165.255 -9.7759 78.4351 17.5306 -76.399 -75.9855 -91.3758 -178.818 31.5319 165.277 9.69495 78.3698 -17.4395 
0.000347026 11.5286 2.50247 0 0 -0 0 12.4824 -0 0 24.9648 -0 0 24.9648 -0 -0.0512315 1.36289 -8.86439 -1.18805 -34.1226 -9.89957 8.80556e-008 -2.18924e-006 -2.0022 3.82095 -3.59343 -78.5574 0.172021 0.0697127 -10.9402 47.0125 -15.76 7.7763 3.18055e-015 2.78299e-015 1.59028e-015 -5.67228e-007 6.22217e-007 1.41433e-007 -4.25421e-007 4.66663e-007 1.06075e-007 3.18055e-015 4.37326e-015 1.59028e-015 3.18055e-015 1.15295e-014 6.36111e-015 -5.67228e-007 6.22217e-007 1.41433e-007 -4.25421e-007 4.66663e-007 1.06075e-007 3.18055e-015 1.15295e-014 6.36111e-015 -5.67228e-007 6.22217e-007 1.41433e-007 -4.25421e-007 4.66663e-007 1.06075e-007 3.18055e-015 4.37326e-015 1.59028e-015 3.18055e-015 1.15295e-014 6.36111e-015 -5.67228e-007 6.22217e-007 1.41433e-007 -4.25421e-007 4.66663e-007 1.06075e-007 3.18055e-015 1.15295e-014 6.36111e-015 -5.67228e-007 6.22217e-007 1.41433e-007 -4.25421e-007 4.66663e-007 1.06075e-007 -8.2279e-007 3.59962e-006 11.9978 -12.2452 -0.988811 57.3229 -1.86778 -0.660742 15.1063 -51.2807 -16.7966 -9.52794 -7.72324e-008 1.14936e-007 -3.01658e-007 1.09349e-007 1.1631e-007 -1.18517e-008 7.28995e-008 7.75398e-008 -7.90112e-009 0 1.2424e-015 -0 -7.72324e-008 1.14936e-007 -3.01658e-007 1.09349e-007 1.1631e-007 -1.18517e-008 7.28995e-008 7.75398e-008 -7.90112e-009 -7.72324e-008 1.14936e-007 -3.01658e-007 1.09349e-007 1.1631e-007 -1.18517e-008 7.28995e-008 7.75398e-008 -7.90112e-009 0 1.2424e-015 -0 -7.72324e-008 1.14936e-007 -3.01658e-007 1.09349e-007 1.1631e-007 -1.18517e-008 7.28995e-008 7.75398e-008 -7.90112e-009 -7.72324e-008 1.14936e-007 -3.01658e-007 1.09349e-007 1.1631e-007 -1.18517e-008 7.28995e-008 7.75398e-008 -7.90112e-009 72.8708 -75.7483 87.7368 178.818 31.5224 -165.255 -9.7759 78.4351 17.5306 -76.399 -75.9855 -91.3758 -178.818 31.5319 165.277 9.69495 78.3698 -17.4395 
